<svg width="61" height="61" viewBox="0 0 61 61" fill="none" xmlns="http://www.w3.org/2000/svg">
<path d="M30.5 15.25C28.8225 15.25 27.45 16.6225 27.45 18.3V27.45H18.3C16.6225 27.45 15.25 28.8225 15.25 30.5C15.25 32.1775 16.6225 33.55 18.3 33.55H27.45V42.7C27.45 44.3775 28.8225 45.75 30.5 45.75C32.1775 45.75 33.55 44.3775 33.55 42.7V33.55H42.7C44.3775 33.55 45.75 32.1775 45.75 30.5C45.75 28.8225 44.3775 27.45 42.7 27.45H33.55V18.3C33.55 16.6225 32.1775 15.25 30.5 15.25ZM30.5 0C13.664 0 0 13.664 0 30.5C0 47.336 13.664 61 30.5 61C47.336 61 61 47.336 61 30.5C61 13.664 47.336 0 30.5 0ZM30.5 54.9C17.0495 54.9 6.1 43.9505 6.1 30.5C6.1 17.0495 17.0495 6.1 30.5 6.1C43.9505 6.1 54.9 17.0495 54.9 30.5C54.9 43.9505 43.9505 54.9 30.5 54.9Z" fill="white"/>
</svg>
