<svg width="26" height="24" viewBox="0 0 26 24" fill="none" xmlns="http://www.w3.org/2000/svg">
<path d="M25.9992 19.0598C25.8216 20.4486 25.0788 21.8535 24.2229 23.1939C23.803 23.8398 22.931 23.8721 22.0105 23.4522C19.669 22.3703 17.3274 21.2722 15.002 20.1741C10.7227 18.1716 6.42713 16.1854 2.14774 14.1668C0.597477 13.4401 0.371396 12.7457 1.08194 11.2116C2.53531 8.07875 4.00483 4.92977 5.47436 1.79694C5.97496 0.747278 6.62091 0.295117 7.41219 0.440455C8.67178 0.650387 9.31773 1.36093 9.38232 2.60437C9.54381 5.31734 11.9338 6.51233 14.2108 5.02666C15.8741 3.92856 17.5535 4.44531 18.2802 6.3024C19.2007 8.6278 20.0889 10.9532 20.977 13.2948C21.1547 13.7792 21.4292 14.1183 21.9136 14.3283C22.5111 14.5705 23.0925 14.845 23.6738 15.1357C25.1111 15.8624 26.0315 17.3158 25.9992 19.0598ZM15.212 11.1631C14.7114 11.147 14.3884 10.9694 14.2592 10.5656C14.0977 10.1135 14.2915 9.7582 14.6791 9.54827C15.0828 9.33834 15.5188 9.20915 15.9548 9.04767C17.4405 8.46632 17.3597 8.74084 16.7784 7.22287C16.3585 6.14091 15.9871 6.01173 14.9697 6.64152C13.5648 7.4974 12.0791 7.67503 10.5612 7.07754C8.70408 6.3347 7.86435 4.84903 7.60597 2.95964C7.57368 2.73356 7.62212 2.39444 7.33145 2.34599C7.02462 2.29755 7.00848 2.65281 6.91158 2.86275C5.99111 4.81673 5.11909 6.77071 4.16632 8.70855C3.84335 9.35449 4.03713 9.58057 4.61848 9.83895C9.14009 11.9221 13.6456 14.0376 18.151 16.1369C19.9112 16.9605 21.6553 17.7841 23.4155 18.5915C23.6254 18.6884 23.8676 18.9145 24.0776 18.7207C24.2875 18.5108 24.1583 18.2201 24.0614 17.9617C23.8515 17.4126 23.4801 16.9928 22.9472 16.7506C22.382 16.4922 21.8329 16.2015 21.2677 15.9754C20.3311 15.6202 19.6367 15.0549 19.3945 14.0376C19.2814 13.5693 18.9907 13.4562 18.5386 13.65C18.2156 13.7954 17.8926 13.9084 17.5535 14.0053C17.0206 14.1829 16.5685 14.0376 16.3585 13.5047C16.1324 12.9395 16.4716 12.5842 16.956 12.3581C17.2305 12.2289 17.5051 12.1321 17.7957 12.0513C18.2802 11.9221 18.587 11.7283 18.2964 11.147C18.0541 10.6625 17.9895 10.065 17.1821 10.4364C16.52 10.7433 15.8256 10.9532 15.212 11.1631ZM23.4639 20.6908C23.4316 20.4163 23.044 20.3517 22.7372 20.2064C16.4393 17.2673 10.1252 14.3283 3.8272 11.3731C3.262 11.1147 3.01977 11.1631 2.71294 11.7445C2.37382 12.4066 2.76139 12.5196 3.1974 12.7295C9.55996 15.6847 15.9064 18.6561 22.2689 21.6113C22.9633 21.9343 23.4478 21.6274 23.4639 20.6908Z" fill="#B0FD2B"/>
<path d="M6.03967 21.9666C7.68683 21.9666 9.31784 21.9666 10.965 21.9666C11.5786 21.9666 12.0954 22.1281 12.0954 22.8225C12.0954 23.5007 11.5786 23.6945 10.9811 23.6945C7.70298 23.6945 4.42481 23.6945 1.14664 23.6945C0.54914 23.6945 0.0162354 23.5169 0.0162354 22.8386C0.0162354 22.1442 0.516842 21.9828 1.13049 21.9828C2.7615 21.9828 4.40866 21.9666 6.03967 21.9666Z" fill="#B0FD2B"/>
<path d="M3.4881 19.8189C2.64837 19.8189 1.82479 19.8189 0.985065 19.8189C0.419864 19.8189 0.0161486 19.5766 0 18.9953C0 18.4139 0.403715 18.1233 0.952768 18.1233C2.64837 18.1071 4.32783 18.1071 6.02343 18.1233C6.54019 18.1233 6.91161 18.4301 6.92776 18.963C6.92776 19.5443 6.54019 19.8189 5.97499 19.8189C5.15141 19.8189 4.31168 19.8189 3.4881 19.8189Z" fill="#B0FD2B"/>
</svg>
