<svg width="28" height="21" viewBox="0 0 28 21" fill="none" xmlns="http://www.w3.org/2000/svg">
<path d="M14 0.000139464C12.7381 -0.0189513 12.7381 1.92831 14 1.90922H16.8V4.32611L11.5677 8.7819L9.7496 3.8183H10.2667C11.5285 3.83739 11.5285 1.89013 10.2667 1.90922H6.53333C5.27147 1.89013 5.27147 3.83739 6.53333 3.8183H7.7504L9.4136 8.35236C8.521 7.88793 7.53479 7.6428 6.53333 7.63645C2.93627 7.63645 0 10.6394 0 14.3182C0 17.997 2.93627 21 6.53333 21C10.1304 21 13.0667 17.997 13.0667 14.3182C13.0667 13.0391 12.6933 11.8536 12.0773 10.8361L17.3432 6.34973L18.2075 8.56426C16.2587 9.72498 14.9333 11.8574 14.9333 14.3182C14.9333 17.997 17.8696 21 21.4667 21C25.0637 21 28 17.997 28 14.3182C28 10.6394 25.0637 7.63645 21.4667 7.63645C20.9384 7.63645 20.4325 7.71854 19.9397 7.84072L18.6667 4.58574V0.954679C18.6667 0.701519 18.5683 0.458728 18.3933 0.279718C18.2183 0.100707 17.9809 0.000139464 17.7333 0.000139464H14ZM6.53333 9.54553C7.59036 9.5482 8.61467 9.92075 9.436 10.6012L5.936 13.5832C4.98213 14.3984 6.17493 15.8646 7.13067 15.0532L10.6307 12.0693C10.9816 12.7413 11.2 13.5011 11.2 14.3182C11.2 16.9661 9.1224 19.0909 6.53333 19.0909C3.94427 19.0909 1.86667 16.9661 1.86667 14.3182C1.86667 11.6703 3.94427 9.54553 6.53333 9.54553ZM21.4667 9.54553C24.0557 9.54553 26.1333 11.6703 26.1333 14.3182C26.1333 16.9661 24.0557 19.0909 21.4667 19.0909C18.8776 19.0909 16.8 16.9661 16.8 14.3182C16.8 12.644 17.6344 11.1835 18.9 10.3321L20.5987 14.6733C21.0579 15.8627 22.8013 15.1506 22.3347 13.9631L20.6397 9.62953C20.9067 9.58371 21.1829 9.54553 21.4667 9.54553Z" fill="url(#paint0_linear)"/>
<defs>
<linearGradient id="paint0_linear" x1="3.29412" y1="-4.62" x2="31.8729" y2="24.6346" gradientUnits="userSpaceOnUse">
<stop stop-color="#FA8700"/>
<stop offset="1" stop-color="#FAD100"/>
</linearGradient>
</defs>
</svg>
