<svg width="33" height="22" viewBox="0 0 33 22" fill="none" xmlns="http://www.w3.org/2000/svg">
<g filter="url(#filter0_dd)">
<path d="M8.995 8.22614C10.7612 8.22614 11.695 9.56586 12.3763 10.5451C12.9888 11.4239 13.29 11.8131 13.9913 11.8131C14.6925 11.8131 14.9937 11.4239 15.6062 10.5451C16.2875 9.56586 17.2213 8.22614 18.9888 8.22614C20.7575 8.22614 21.6925 9.56586 22.3763 10.5451C22.99 11.4239 23.2913 11.8131 23.995 11.8131C24.6988 11.8131 25 11.4239 25.6138 10.5451C26.2963 9.56586 27.2313 8.22614 29 8.22614V10.4131C28.2962 10.4131 27.995 10.8023 27.3813 11.6811C26.6987 12.6603 25.7638 14 23.995 14C22.2263 14 21.2925 12.6603 20.6087 11.6828C19.995 10.8023 19.695 10.4131 18.9888 10.4131C18.2863 10.4131 17.9863 10.8023 17.3738 11.6811C16.6925 12.6603 15.7587 14 13.9913 14C12.2238 14 11.29 12.6603 10.6088 11.6811C9.99625 10.8023 9.69625 10.4131 8.995 10.4131C8.29375 10.4131 7.99375 10.8023 7.38125 11.6811C6.7 12.6603 5.76625 14 4 14V11.8131C4.70125 11.8131 5.00125 11.4239 5.61375 10.5451C6.295 9.56586 7.22875 8.22614 8.995 8.22614Z" fill="url(#paint0_linear)"/>
<path d="M8.995 0C10.7612 0 11.695 1.33972 12.3763 2.31895C12.9888 3.19775 13.29 3.58693 13.9913 3.58693C14.6925 3.58693 14.9937 3.19775 15.6062 2.31895C16.2875 1.33972 17.2213 0 18.9888 0C20.7575 0 21.6925 1.33972 22.3763 2.31895C22.99 3.19775 23.2913 3.58693 23.995 3.58693C24.6988 3.58693 25 3.19775 25.6138 2.31895C26.2963 1.33972 27.2313 0 29 0V2.18693C28.2962 2.18693 27.995 2.57611 27.3813 3.45491C26.6987 4.43414 25.7638 5.77386 23.995 5.77386C22.2263 5.77386 21.2925 4.43414 20.6087 3.4567C19.995 2.57611 19.695 2.18693 18.9888 2.18693C18.2863 2.18693 17.9863 2.57611 17.3738 3.45491C16.6925 4.43414 15.7587 5.77386 13.9913 5.77386C12.2238 5.77386 11.29 4.43414 10.6088 3.45491C9.99625 2.57611 9.69625 2.18693 8.995 2.18693C8.29375 2.18693 7.99375 2.57611 7.38125 3.45491C6.7 4.43414 5.76625 5.77386 4 5.77386V4.68039V3.58693C4.31056 3.58693 4.54242 3.5106 4.75758 3.34922C5.02826 3.1462 5.2725 2.80856 5.61375 2.31895C6.295 1.33972 7.22875 0 8.995 0Z" fill="url(#paint1_linear)"/>
</g>
<defs>
<filter id="filter0_dd" x="0" y="0" width="33" height="22" filterUnits="userSpaceOnUse" color-interpolation-filters="sRGB">
<feFlood flood-opacity="0" result="BackgroundImageFix"/>
<feColorMatrix in="SourceAlpha" type="matrix" values="0 0 0 0 0 0 0 0 0 0 0 0 0 0 0 0 0 0 127 0"/>
<feOffset dy="4"/>
<feGaussianBlur stdDeviation="2"/>
<feColorMatrix type="matrix" values="0 0 0 0 0 0 0 0 0 0 0 0 0 0 0 0 0 0 0.25 0"/>
<feBlend mode="normal" in2="BackgroundImageFix" result="effect1_dropShadow"/>
<feColorMatrix in="SourceAlpha" type="matrix" values="0 0 0 0 0 0 0 0 0 0 0 0 0 0 0 0 0 0 127 0"/>
<feOffset dy="4"/>
<feGaussianBlur stdDeviation="2"/>
<feColorMatrix type="matrix" values="0 0 0 0 0 0 0 0 0 0 0 0 0 0 0 0 0 0 0.25 0"/>
<feBlend mode="normal" in2="effect1_dropShadow" result="effect2_dropShadow"/>
<feBlend mode="normal" in="SourceGraphic" in2="effect2_dropShadow" result="shape"/>
</filter>
<linearGradient id="paint0_linear" x1="29" y1="14" x2="0.403083" y2="2.63837" gradientUnits="userSpaceOnUse">
<stop offset="0.00170469" stop-color="#00FFF0"/>
<stop offset="1" stop-color="#00E3F3"/>
</linearGradient>
<linearGradient id="paint1_linear" x1="29" y1="14" x2="0.403083" y2="2.63837" gradientUnits="userSpaceOnUse">
<stop offset="0.00170469" stop-color="#00FFF0"/>
<stop offset="1" stop-color="#00E3F3"/>
</linearGradient>
</defs>
</svg>
